<svg xmlns="http://www.w3.org/2000/svg" viewBox="0 0 2400 680" width="2400" height="680">
<defs>
  <!-- Background Gradients -->
  <linearGradient id="bg-canvas" x1="0%" y1="0%" x2="100%" y2="100%">
    <stop offset="0%" stop-color="#041217"/>
    <stop offset="35%" stop-color="#071d24"/>
    <stop offset="70%" stop-color="#0a252e"/>
    <stop offset="100%" stop-color="#0b2e38"/>
  </linearGradient>

  <linearGradient id="bg-panel-border" x1="0%" y1="0%" x2="100%" y2="0%">
    <stop offset="0%" stop-color="#144d59" stop-opacity="0.8"/>
    <stop offset="40%" stop-color="#2dd4bf" stop-opacity="0.6"/>
    <stop offset="80%" stop-color="#38bdf8" stop-opacity="0.5"/>
    <stop offset="100%" stop-color="#144d59" stop-opacity="0.3"/>
  </linearGradient>

  <!-- Radial Glows -->
  <radialGradient id="ambient-cyan" cx="50%" cy="50%" r="50%">
    <stop offset="0%" stop-color="#06b6d4" stop-opacity="0.22"/>
    <stop offset="50%" stop-color="#06b6d4" stop-opacity="0.05"/>
    <stop offset="100%" stop-color="#06b6d4" stop-opacity="0"/>
  </radialGradient>

  <radialGradient id="ambient-amber" cx="50%" cy="50%" r="50%">
    <stop offset="0%" stop-color="#f59e0b" stop-opacity="0.18"/>
    <stop offset="50%" stop-color="#f59e0b" stop-opacity="0.04"/>
    <stop offset="100%" stop-color="#f59e0b" stop-opacity="0"/>
  </radialGradient>

  <radialGradient id="ambient-emerald" cx="50%" cy="50%" r="50%">
    <stop offset="0%" stop-color="#10b981" stop-opacity="0.16"/>
    <stop offset="60%" stop-color="#10b981" stop-opacity="0.03"/>
    <stop offset="100%" stop-color="#10b981" stop-opacity="0"/>
  </radialGradient>

  <!-- Glass Card Gradients -->
  <linearGradient id="card-glass" x1="0%" y1="0%" x2="100%" y2="100%">
    <stop offset="0%" stop-color="#0e323b" stop-opacity="0.94"/>
    <stop offset="100%" stop-color="#081e24" stop-opacity="0.98"/>
  </linearGradient>

  <!-- Machine Engine Gradients -->
  <linearGradient id="engine-body" x1="0%" y1="0%" x2="100%" y2="100%">
    <stop offset="0%" stop-color="#133842"/>
    <stop offset="50%" stop-color="#0c272e"/>
    <stop offset="100%" stop-color="#06191d"/>
  </linearGradient>

  <!-- Blueprint Grid Pattern -->
  <pattern id="grid-dots" width="40" height="40" patternUnits="userSpaceOnUse">
    <circle cx="20" cy="20" r="1.2" fill="#2dd4bf" fill-opacity="0.10"/>
  </pattern>
</defs>

<!-- Canvas Background with Rounded Enclosure -->
<rect width="2400" height="680" rx="22" fill="url(#bg-canvas)"/>
<rect width="2400" height="680" rx="22" fill="url(#grid-dots)"/>
<rect x="2" y="2" width="2396" height="676" rx="20" fill="none" stroke="url(#bg-panel-border)" stroke-width="2.5"/>

<!-- Ambient Color Lighting Orbs -->
<ellipse cx="1450" cy="340" rx="460" ry="300" fill="url(#ambient-cyan)"/>
<ellipse cx="1980" cy="360" rx="440" ry="280" fill="url(#ambient-amber)"/>
<ellipse cx="450" cy="260" rx="420" ry="260" fill="url(#ambient-emerald)"/>

<!-- ================= LEFT BRAND COLUMN ================= -->
<g id="brand-column">
  <!-- Privacy Pill Badge -->
  <g transform="translate(85, 72)">
    <rect width="455" height="34" rx="17" fill="#072224" stroke="#10b981" stroke-opacity="0.7" stroke-width="1.5"/>
    <circle cx="20" cy="17" r="5" fill="#34d399"/>
    <circle cx="20" cy="17" r="8" fill="#34d399" fill-opacity="0.25"/>
    <text x="36" y="22" fill="#34d399" font-family="system-ui, -apple-system, 'Segoe UI', Roboto, sans-serif" font-size="12.5" font-weight="700" letter-spacing="1.5">100% LOCAL-FIRST · ZERO DATA EGRESS · OFFLINE</text>
  </g>

  <!-- Main Wordmark -->
  <g transform="translate(85, 185)">
    <text font-family="system-ui, -apple-system, 'Segoe UI', Roboto, Helvetica, Arial, sans-serif" font-size="76" font-weight="900" letter-spacing="-2px">
      <tspan fill="#ffffff">worksheet</tspan><tspan fill="#2dd4bf">-generator</tspan>
    </text>
  </g>

  <!-- Tagline -->
  <g transform="translate(87, 244)">
    <text fill="#f8fafc" font-family="system-ui, -apple-system, 'Segoe UI', Roboto, Helvetica, Arial, sans-serif" font-size="26.5" font-weight="700" letter-spacing="-0.5px">
      Bespoke Practice Sheets from Abstract Educational Goals
    </text>
  </g>

  <!-- Descriptive Subtitle -->
  <g transform="translate(87, 288)">
    <text fill="#94a3b8" font-family="system-ui, -apple-system, 'Segoe UI', Roboto, Helvetica, Arial, sans-serif" font-size="17.5" font-weight="400">
      <tspan x="0" dy="0">Turns ICF competencies &amp; school curricula into individually differentiated, ready-to-print</tspan>
      <tspan x="0" dy="27">worksheets. Runs entirely on your local machine with deterministic, private generation.</tspan>
    </text>
  </g>

  <!-- Feature Grid / Key Pillars (4 Pill Badges) -->
  <g transform="translate(85, 390)">
    <!-- Pill 1: ICF & Curricula -->
    <g transform="translate(0, 0)">
      <rect width="365" height="48" rx="12" fill="#0d2831" stroke="#1d4e5b" stroke-width="1.5"/>
      <circle cx="28" cy="24" r="10" fill="#0284c7" fill-opacity="0.3"/>
      <path d="M24 24 L27 27 L33 21" stroke="#38bdf8" stroke-width="2.5" stroke-linecap="round" stroke-linejoin="round" fill="none"/>
      <text x="50" y="29" fill="#e2e8f0" font-family="system-ui, -apple-system, 'Segoe UI', Roboto, sans-serif" font-size="14.5" font-weight="600">
        ICF Codes <tspan fill="#94a3b8" font-weight="400">(d150, b140, b167)</tspan> &amp; Curricula
      </text>
    </g>

    <!-- Pill 2: Differentiation -->
    <g transform="translate(385, 0)">
      <rect width="365" height="48" rx="12" fill="#0d2831" stroke="#1d4e5b" stroke-width="1.5"/>
      <circle cx="28" cy="24" r="10" fill="#059669" fill-opacity="0.3"/>
      <path d="M22 28 L28 18 L34 28" stroke="#34d399" stroke-width="2" stroke-linecap="round" stroke-linejoin="round" fill="none"/>
      <text x="50" y="29" fill="#e2e8f0" font-family="system-ui, -apple-system, 'Segoe UI', Roboto, sans-serif" font-size="14.5" font-weight="600">
        Multi-Tiered <tspan fill="#94a3b8" font-weight="400">(G / M / E Differentiated)</tspan>
      </text>
    </g>

    <!-- Pill 3: Export Formats -->
    <g transform="translate(0, 64)">
      <rect width="365" height="48" rx="12" fill="#0d2831" stroke="#1d4e5b" stroke-width="1.5"/>
      <circle cx="28" cy="24" r="10" fill="#d97706" fill-opacity="0.3"/>
      <rect x="22" y="18" width="12" height="12" rx="2" stroke="#fbbf24" stroke-width="2" fill="none"/>
      <text x="50" y="29" fill="#e2e8f0" font-family="system-ui, -apple-system, 'Segoe UI', Roboto, sans-serif" font-size="14.5" font-weight="600">
        Formats: <tspan fill="#fbbf24" font-weight="700">JSON · Markdown · HTML · DOCX</tspan>
      </text>
    </g>

    <!-- Pill 4: Zero Egress Stdlib -->
    <g transform="translate(385, 64)">
      <rect width="365" height="48" rx="12" fill="#0d2831" stroke="#1d4e5b" stroke-width="1.5"/>
      <circle cx="28" cy="24" r="10" fill="#7c3aed" fill-opacity="0.3"/>
      <path d="M28 17 L23 20 V25 C23 28 28 31 28 31 C28 31 33 28 33 25 V20 Z" stroke="#a78bfa" stroke-width="1.8" fill="none"/>
      <text x="50" y="29" fill="#e2e8f0" font-family="system-ui, -apple-system, 'Segoe UI', Roboto, sans-serif" font-size="14.5" font-weight="600">
        Zero Egress <tspan fill="#94a3b8" font-weight="400">· Standard Library Only</tspan>
      </text>
    </g>
  </g>

  <!-- Technical Spec Footnote -->
  <g transform="translate(87, 578)">
    <text fill="#64748b" font-family="system-ui, -apple-system, 'Segoe UI', Roboto, sans-serif" font-size="13" font-weight="500" letter-spacing="0.5">
      PYTHON 3.10+ · SPECIAL EDUCATION &amp; CLASSROOM MODES · DETERMINISTIC GENERATION
    </text>
  </g>
</g>

<!-- ================= CONNECTIVE CONDUITS ================= -->
<g id="conduits" opacity="0.9">
  <!-- Glowing Data Rails from Left Cards to Engine -->
  <path d="M1150 168 C1185 168, 1200 270, 1240 285" fill="none" stroke="#0284c7" stroke-width="3" stroke-dasharray="6,6" opacity="0.7"/>
  <path d="M1160 298 C1195 298, 1200 325, 1240 325" fill="none" stroke="#2dd4bf" stroke-width="3.5" opacity="0.8"/>
  <path d="M1150 428 C1185 428, 1200 375, 1240 365" fill="none" stroke="#10b981" stroke-width="3" stroke-dasharray="6,6" opacity="0.7"/>

  <!-- Energy Stream leaving Engine into Worksheets -->
  <path d="M1490 310 C1515 310, 1530 250, 1565 250" fill="none" stroke="#f59e0b" stroke-width="4" opacity="0.8"/>
  <path d="M1495 350 C1520 350, 1535 380, 1575 380" fill="none" stroke="#38bdf8" stroke-width="3" opacity="0.8"/>
</g>

<!-- ================= STAGE 1: ABSTRACT INPUT CARTRIDGES ================= -->
<g id="stage-inputs" transform="translate(885, 0)">
  <!-- Flow Label -->
  <g transform="translate(15, 88)">
    <text fill="#38bdf8" font-family="system-ui, -apple-system, 'Segoe UI', Roboto, sans-serif" font-size="11" font-weight="700" letter-spacing="2">STAGE 1: ABSTRACT PEDAGOGICAL INPUT</text>
  </g>

  <!-- Input Card 1: ICF Competency -->
  <g transform="translate(15, 115)">
    <!-- Card Drop Shadow -->
    <rect x="0" y="8" width="250" height="96" rx="14" fill="#030d11" opacity="0.6"/>
    <!-- Card Frame -->
    <rect width="250" height="96" rx="14" fill="url(#card-glass)" stroke="#0284c7" stroke-width="1.8"/>
    <!-- Card Header Icon & Tag -->
    <rect x="14" y="14" width="26" height="26" rx="7" fill="#0369a1" fill-opacity="0.4"/>
    <text x="27" y="31" fill="#38bdf8" font-family="system-ui, sans-serif" font-size="12" font-weight="bold" text-anchor="middle">🎯</text>
    <text x="48" y="23" fill="#38bdf8" font-family="system-ui, sans-serif" font-size="10" font-weight="700" letter-spacing="1">ICF COMPETENCY CODE</text>
    <text x="48" y="38" fill="#ffffff" font-family="system-ui, sans-serif" font-size="15" font-weight="800">d150: Calculating</text>
    
    <!-- Mini Sub-Tags -->
    <rect x="14" y="54" width="102" height="24" rx="6" fill="#0f3440"/>
    <text x="65" y="70" fill="#7dd3fc" font-family="system-ui, sans-serif" font-size="10.5" font-weight="600" text-anchor="middle">Zahlenraum 100</text>
    
    <rect x="122" y="54" width="112" height="24" rx="6" fill="#0f3440"/>
    <text x="178" y="70" fill="#7dd3fc" font-family="system-ui, sans-serif" font-size="10.5" font-weight="600" text-anchor="middle">Grundrechenarten</text>
  </g>

  <!-- Input Card 2: Differentiation & Target Learner -->
  <g transform="translate(25, 240)">
    <!-- Card Drop Shadow -->
    <rect x="0" y="8" width="250" height="110" rx="14" fill="#030d11" opacity="0.6"/>
    <!-- Card Frame -->
    <rect width="250" height="110" rx="14" fill="url(#card-glass)" stroke="#2dd4bf" stroke-width="1.8"/>
    <!-- Card Header -->
    <rect x="14" y="14" width="26" height="26" rx="7" fill="#0f766e" fill-opacity="0.4"/>
    <text x="27" y="31" fill="#2dd4bf" font-family="system-ui, sans-serif" font-size="12" font-weight="bold" text-anchor="middle">⚖</text>
    <text x="48" y="23" fill="#2dd4bf" font-family="system-ui, sans-serif" font-size="10" font-weight="700" letter-spacing="1">DIFFERENTIATION LEVEL</text>
    <text x="48" y="38" fill="#ffffff" font-family="system-ui, sans-serif" font-size="15" font-weight="800">Tier M · Anschaulich</text>
    
    <!-- Calibrated Slider Visual -->
    <g transform="translate(14, 60)">
      <text x="0" y="0" fill="#94a3b8" font-family="system-ui, sans-serif" font-size="9.5" font-weight="600">Scaffolded</text>
      <text x="220" y="0" fill="#94a3b8" font-family="system-ui, sans-serif" font-size="9.5" font-weight="600" text-anchor="end">Abstract</text>
      <!-- Track -->
      <rect x="0" y="8" width="220" height="6" rx="3" fill="#134e4a"/>
      <rect x="0" y="8" width="125" height="6" rx="3" fill="#2dd4bf"/>
      <!-- Dial Pin -->
      <circle cx="125" cy="11" r="8" fill="#ffffff" stroke="#2dd4bf" stroke-width="2.5"/>
      <text x="125" y="33" fill="#5eead4" font-family="system-ui, sans-serif" font-size="10.5" font-weight="700" text-anchor="middle">Age: 8–10 yrs</text>
    </g>
  </g>

  <!-- Input Card 3: Offline Privacy Chamber -->
  <g transform="translate(15, 380)">
    <!-- Card Drop Shadow -->
    <rect x="0" y="8" width="250" height="90" rx="14" fill="#030d11" opacity="0.6"/>
    <!-- Card Frame -->
    <rect width="250" height="90" rx="14" fill="url(#card-glass)" stroke="#10b981" stroke-width="1.8"/>
    <!-- Card Header -->
    <rect x="14" y="14" width="26" height="26" rx="7" fill="#065f46" fill-opacity="0.4"/>
    <text x="27" y="31" fill="#34d399" font-family="system-ui, sans-serif" font-size="12" font-weight="bold" text-anchor="middle">🔒</text>
    <text x="48" y="23" fill="#34d399" font-family="system-ui, sans-serif" font-size="10" font-weight="700" letter-spacing="1">LOCAL RUNTIME VAULT</text>
    <text x="48" y="39" fill="#ffffff" font-family="system-ui, sans-serif" font-size="15" font-weight="800">Zero Student PII Egress</text>
    
    <g transform="translate(14, 54)">
      <circle cx="8" cy="8" r="4" fill="#10b981"/>
      <text x="20" y="12" fill="#a7f3d0" font-family="system-ui, sans-serif" font-size="11" font-weight="500">Unprivileged · Python Stdlib Only</text>
    </g>
  </g>
</g>

<!-- ================= STAGE 2: BESPOKE SYNTHESIS ENGINE ================= -->
<g id="stage-engine" transform="translate(1175, 0)">
  <!-- Flow Label -->
  <g transform="translate(25, 88)">
    <text fill="#fbbf24" font-family="system-ui, -apple-system, 'Segoe UI', Roboto, sans-serif" font-size="11" font-weight="700" letter-spacing="2">STAGE 2: BESPOKE COMPOSITION &amp; TAILORING</text>
  </g>

  <!-- Engine Mechanical Enclosure Frame -->
  <g transform="translate(15, 120)">
    <!-- Shadow -->
    <rect x="0" y="12" width="295" height="395" rx="20" fill="#030d11" opacity="0.7"/>
    <!-- Main Chassis -->
    <rect width="295" height="395" rx="20" fill="url(#engine-body)" stroke="#225b68" stroke-width="2"/>
    <rect x="10" y="10" width="275" height="375" rx="14" fill="none" stroke="#16434d" stroke-width="1.5" stroke-dasharray="4,4"/>

    <!-- Top Roller / Feed Mechanism -->
    <rect x="20" y="26" width="255" height="28" rx="8" fill="#1a4652" stroke="#2dd4bf" stroke-width="1.5"/>
    <line x1="35" y1="40" x2="260" y2="40" stroke="#5eead4" stroke-width="2" stroke-dasharray="8,6"/>

    <!-- Interlocking Precision Gears (Rich High-Contrast Colors) -->
    <!-- Gear 1 (Main Gold Gear) -->
    <g transform="translate(80, 125)">
      <!-- Outer Rim & Teeth -->
      <circle cx="0" cy="0" r="46" fill="#d97706"/>
      <!-- Teeth -->
      <path d="M-5 -49 H5 V-41 H-5 Z" fill="#fbbf24"/>
      <path d="M-5 41 H5 V49 H-5 Z" fill="#fbbf24"/>
      <path d="M-49 -5 V5 H-41 V-5 Z" fill="#fbbf24"/>
      <path d="M41 -5 V5 H49 V-5 Z" fill="#fbbf24"/>
      <path d="M-36 -36 L-29 -29 L-23 -35 L-30 -42 Z" fill="#fbbf24"/>
      <path d="M29 29 L36 36 L42 30 L35 23 Z" fill="#fbbf24"/>
      <path d="M-36 36 L-29 29 L-35 23 L-42 30 Z" fill="#fbbf24"/>
      <path d="M29 -29 L36 -36 L30 -42 L23 -35 Z" fill="#fbbf24"/>
      
      <!-- Main Gear Face -->
      <circle cx="0" cy="0" r="41" fill="#f59e0b"/>
      <circle cx="0" cy="0" r="34" fill="#0d2831" stroke="#fef08a" stroke-width="1.5"/>
      <!-- Inner Gold Cutouts -->
      <circle cx="0" cy="-19" r="6" fill="#fbbf24"/>
      <circle cx="0" cy="19" r="6" fill="#fbbf24"/>
      <circle cx="-19" cy="0" r="6" fill="#fbbf24"/>
      <circle cx="19" cy="0" r="6" fill="#fbbf24"/>
      <!-- Hub -->
      <circle cx="0" cy="0" r="12" fill="#fbbf24" stroke="#d97706" stroke-width="1.5"/>
      <circle cx="0" cy="0" r="5" fill="#0d2831"/>
    </g>

    <!-- Gear 2 (Cyan Secondary Gear) -->
    <g transform="translate(180, 105)">
      <!-- Teeth -->
      <rect x="-4" y="-36" width="8" height="6" fill="#38bdf8"/>
      <rect x="-4" y="30" width="8" height="6" fill="#38bdf8"/>
      <rect x="-36" y="-4" width="6" height="8" fill="#38bdf8"/>
      <rect x="30" y="-4" width="6" height="8" fill="#38bdf8"/>
      <!-- Body -->
      <circle cx="0" cy="0" r="32" fill="#0284c7" stroke="#38bdf8" stroke-width="2"/>
      <circle cx="0" cy="0" r="22" fill="#0e3d48"/>
      <circle cx="0" cy="0" r="12" fill="#38bdf8"/>
      <circle cx="0" cy="0" r="5" fill="#062027"/>
    </g>

    <!-- Movable Type Matrix / Setzkasten Slugs -->
    <g transform="translate(20, 195)">
      <!-- Chase Plate -->
      <rect width="255" height="110" rx="10" fill="#0a2027" stroke="#d97706" stroke-width="1.5"/>
      <text x="127" y="20" fill="#fbbf24" font-family="system-ui, sans-serif" font-size="9.5" font-weight="700" letter-spacing="1.5" text-anchor="middle">TYPOGRAPHIC COMPOSITION MATRIX</text>
      
      <!-- Typeblock Slugs Grid -->
      <!-- Slug 1: 47 -->
      <g transform="translate(10, 30)">
        <rect width="48" height="32" rx="5" fill="#1b4753" stroke="#f59e0b" stroke-width="1.5"/>
        <text x="24" y="22" fill="#ffffff" font-family="'Courier New', monospace" font-size="16" font-weight="bold" text-anchor="middle">47</text>
      </g>
      <!-- Slug 2: + -->
      <g transform="translate(66, 30)">
        <rect width="44" height="32" rx="5" fill="#1b4753" stroke="#38bdf8" stroke-width="1.5"/>
        <text x="22" y="23" fill="#38bdf8" font-family="system-ui, sans-serif" font-size="20" font-weight="bold" text-anchor="middle">+</text>
      </g>
      <!-- Slug 3: 28 -->
      <g transform="translate(118, 30)">
        <rect width="48" height="32" rx="5" fill="#1b4753" stroke="#f59e0b" stroke-width="1.5"/>
        <text x="24" y="22" fill="#ffffff" font-family="'Courier New', monospace" font-size="16" font-weight="bold" text-anchor="middle">28</text>
      </g>
      <!-- Slug 4: = -->
      <g transform="translate(174, 30)">
        <rect width="70" height="32" rx="5" fill="#1b4753" stroke="#34d399" stroke-width="1.5"/>
        <text x="35" y="22" fill="#34d399" font-family="system-ui, sans-serif" font-size="16" font-weight="bold" text-anchor="middle">[ ? ]</text>
      </g>
      
      <!-- Row 2: Pedagogical Scaffolding Slugs -->
      <!-- Slug 5: Visual Hint -->
      <g transform="translate(10, 68)">
        <rect width="105" height="28" rx="5" fill="#133640" stroke="#2dd4bf" stroke-width="1"/>
        <text x="52" y="18" fill="#5eead4" font-family="system-ui, sans-serif" font-size="10.5" font-weight="600" text-anchor="middle">Ten-Frame Grid</text>
      </g>
      <!-- Slug 6: Token -->
      <g transform="translate(123, 68)">
        <rect width="121" height="28" rx="5" fill="#133640" stroke="#f59e0b" stroke-width="1"/>
        <text x="60" y="18" fill="#fde68a" font-family="system-ui, sans-serif" font-size="10.5" font-weight="600" text-anchor="middle">★ Self-Assess</text>
      </g>
    </g>

    <!-- Bespoke Tailor's Tape / Calibrated Measuring Band -->
    <g transform="translate(15, 325)">
      <!-- Golden Tape Outer -->
      <path d="M0 22 C75 5, 185 38, 265 18" fill="none" stroke="#f59e0b" stroke-width="20" stroke-linecap="round"/>
      <path d="M0 22 C75 5, 185 38, 265 18" fill="none" stroke="#fef08a" stroke-width="16" stroke-linecap="round"/>
      <!-- Millimeter Markings on Tape -->
      <path d="M25 17 L25 23 M45 15 L45 23 M65 16 L65 24 M85 18 L85 26 M105 20 L105 28 M125 22 L125 30 M145 22 L145 30 M165 21 L165 29 M185 19 L185 27 M205 17 L205 25 M225 16 L225 24 M245 15 L245 23" stroke="#78350f" stroke-width="1.8"/>
      <text x="132" y="13" fill="#78350f" font-family="system-ui, sans-serif" font-size="9" font-weight="900" text-anchor="middle">INDIVIDUALIZED SCALE</text>
    </g>
  </g>
</g>

<!-- ================= STAGE 3: OUTPUT BESPOKE WORKSHEETS ================= -->
<g id="stage-worksheets">
  <!-- Flow Label -->
  <g transform="translate(1620, 88)">
    <text fill="#34d399" font-family="system-ui, -apple-system, 'Segoe UI', Roboto, sans-serif" font-size="11" font-weight="700" letter-spacing="2">STAGE 3: BESPOKE, READY-TO-USE WORKSHEETS</text>
  </g>

  <!-- ================= SHEET 1 (BACK / LEFT): TIER G (ANSCHAULICH) ================= -->
  <g transform="translate(1525, 120) rotate(-6)">
    <!-- Realistic Multi-layer Drop Shadow -->
    <rect x="0" y="14" width="265" height="435" rx="10" fill="#02080a" opacity="0.65"/>
    <rect x="0" y="6" width="265" height="435" rx="10" fill="#02080a" opacity="0.35"/>
    
    <!-- Sheet Base (Warm Paper) -->
    <rect width="265" height="435" rx="10" fill="#fefdfb" stroke="#cbd5e1" stroke-width="1.5"/>
    
    <!-- Top Header Ribbon -->
    <rect x="14" y="16" width="237" height="34" rx="6" fill="#fef3c7" stroke="#f59e0b" stroke-width="1"/>
    <text x="24" y="32" fill="#b45309" font-family="system-ui, sans-serif" font-size="9" font-weight="800" letter-spacing="1">TIER G · ANSCHAULICH (GRADE 2)</text>
    <text x="24" y="44" fill="#78350f" font-family="system-ui, sans-serif" font-size="11" font-weight="700">Mengen &amp; Zehnerbündelung</text>
    
    <!-- Exercise 1: Ten-Frame Tactile Counting -->
    <g transform="translate(14, 62)">
      <text x="0" y="10" fill="#334155" font-family="system-ui, sans-serif" font-size="10.5" font-weight="700">1. Zähle die Punkte:</text>
      <!-- Ten-Frame Box -->
      <rect x="0" y="18" width="115" height="48" rx="4" fill="#ffffff" stroke="#94a3b8" stroke-width="1.2"/>
      <line x1="57" y1="18" x2="57" y2="66" stroke="#cbd5e1" stroke-width="1"/>
      <line x1="0" y1="42" x2="115" y2="42" stroke="#cbd5e1" stroke-width="1"/>
      <!-- Dots -->
      <circle cx="15" cy="30" r="5.5" fill="#0284c7"/>
      <circle cx="36" cy="30" r="5.5" fill="#0284c7"/>
      <circle cx="15" cy="54" r="5.5" fill="#0284c7"/>
      <circle cx="36" cy="54" r="5.5" fill="#0284c7"/>
      <circle cx="72" cy="30" r="5.5" fill="#0284c7"/>
      <circle cx="93" cy="30" r="5.5" fill="#0284c7"/>
      <text x="130" y="46" fill="#0f172a" font-family="'Courier New', monospace" font-size="15" font-weight="bold">= [ 6 ]</text>
    </g>

    <!-- Exercise 2: Visual Addition -->
    <g transform="translate(14, 145)">
      <text x="0" y="10" fill="#334155" font-family="system-ui, sans-serif" font-size="10.5" font-weight="700">2. Ergänze bis 10:</text>
      <rect x="0" y="18" width="237" height="52" rx="6" fill="#ffffff" stroke="#cbd5e1" stroke-width="1"/>
      <text x="12" y="48" fill="#1e293b" font-family="system-ui, sans-serif" font-size="12.5" font-weight="bold">7 + [ ___ ] = 10</text>
      <text x="128" y="48" fill="#1e293b" font-family="system-ui, sans-serif" font-size="12.5" font-weight="bold">4 + [ ___ ] = 10</text>
    </g>

    <!-- Exercise 3: Drawing area -->
    <g transform="translate(14, 230)">
      <text x="0" y="10" fill="#334155" font-family="system-ui, sans-serif" font-size="10.5" font-weight="700">3. Zeichne 5 Äpfel:</text>
      <rect x="0" y="18" width="237" height="75" rx="6" fill="#ffffff" stroke="#e2e8f0" stroke-width="1" stroke-dasharray="4,4"/>
      <!-- Apple sketches -->
      <circle cx="42" cy="55" r="13" fill="#fee2e2" stroke="#ef4444" stroke-width="1.5"/>
      <circle cx="80" cy="55" r="13" fill="#fee2e2" stroke="#ef4444" stroke-width="1.5"/>
      <circle cx="118" cy="55" r="13" fill="#fee2e2" stroke="#ef4444" stroke-width="1.5"/>
    </g>

    <!-- Footer Seal -->
    <g transform="translate(14, 390)">
      <text x="0" y="14" fill="#94a3b8" font-family="system-ui, sans-serif" font-size="8.5">worksheet-generator · ICF d150 · Anschauliche Stufe</text>
    </g>
  </g>

  <!-- ================= SHEET 2 (HERO FRONT): TIER M (STANDARD / REGELANFORDERUNG) ================= -->
  <g transform="translate(1705, 105) rotate(0)">
    <!-- Deep Realistic Drop Shadow -->
    <rect x="0" y="18" width="335" height="485" rx="12" fill="#02080a" opacity="0.75"/>
    <rect x="0" y="6" width="335" height="485" rx="12" fill="#02080a" opacity="0.4"/>
    
    <!-- Sheet Base (Brilliant White Paper) -->
    <rect width="335" height="485" rx="12" fill="#ffffff" stroke="#94a3b8" stroke-width="1.5"/>

    <!-- School Worksheet Header Box -->
    <g transform="translate(18, 16)">
      <!-- Top Title Bar -->
      <rect width="299" height="28" rx="6" fill="#0f766e"/>
      <text x="12" y="18" fill="#ffffff" font-family="system-ui, sans-serif" font-size="11" font-weight="800" letter-spacing="1">MATHEMATIK · KLASSE 3</text>
      <text x="287" y="18" fill="#99f6e4" font-family="system-ui, sans-serif" font-size="9.5" font-weight="700" text-anchor="end">STUFE M</text>

      <!-- Student Metadata Strip -->
      <rect x="0" y="34" width="299" height="24" rx="4" fill="#f8fafc" stroke="#e2e8f0" stroke-width="1"/>
      <text x="8" y="50" fill="#475569" font-family="system-ui, sans-serif" font-size="9.5">Name: <tspan fill="#0f172a" font-weight="600">Leon M.</tspan></text>
      <text x="112" y="50" fill="#475569" font-family="system-ui, sans-serif" font-size="9.5">Datum: <tspan fill="#0f172a" font-weight="600">19.09.</tspan></text>
      <text x="215" y="50" fill="#475569" font-family="system-ui, sans-serif" font-size="9.5">Punkte: <tspan fill="#0f172a" font-weight="700">__/24</tspan></text>
    </g>

    <!-- Main Title -->
    <g transform="translate(18, 88)">
      <text fill="#0f172a" font-family="system-ui, sans-serif" font-size="14.5" font-weight="800">Halbschriftliche Addition &amp; Multiplikation</text>
      <line x1="0" y1="7" x2="299" y2="7" stroke="#0f766e" stroke-width="2"/>
    </g>

    <!-- Exercise 1: Structured Arithmetic Calculations -->
    <g transform="translate(18, 110)">
      <text x="0" y="10" fill="#1e293b" font-family="system-ui, sans-serif" font-size="10.5" font-weight="700">1. Rechne geschickt im Zahlenraum bis 100:</text>
      
      <!-- Grid of 4 Calculation Cards -->
      <!-- Item A -->
      <g transform="translate(0, 18)">
        <rect width="142" height="38" rx="5" fill="#f1f5f9" stroke="#cbd5e1" stroke-width="1"/>
        <text x="10" y="24" fill="#0f172a" font-family="'Courier New', monospace" font-size="13" font-weight="bold">47 + 28 =</text>
        <rect x="90" y="10" width="44" height="20" rx="3" fill="#ffffff" stroke="#94a3b8" stroke-width="1"/>
        <text x="112" y="24" fill="#059669" font-family="'Courier New', monospace" font-size="12" font-weight="bold" text-anchor="middle">75</text>
      </g>
      <!-- Item B -->
      <g transform="translate(156, 18)">
        <rect width="142" height="38" rx="5" fill="#f1f5f9" stroke="#cbd5e1" stroke-width="1"/>
        <text x="10" y="24" fill="#0f172a" font-family="'Courier New', monospace" font-size="13" font-weight="bold">83 - 36 =</text>
        <rect x="90" y="10" width="44" height="20" rx="3" fill="#ffffff" stroke="#94a3b8" stroke-width="1"/>
        <text x="112" y="24" fill="#059669" font-family="'Courier New', monospace" font-size="12" font-weight="bold" text-anchor="middle">47</text>
      </g>
      <!-- Item C -->
      <g transform="translate(0, 62)">
        <rect width="142" height="38" rx="5" fill="#f1f5f9" stroke="#cbd5e1" stroke-width="1"/>
        <text x="10" y="24" fill="#0f172a" font-family="'Courier New', monospace" font-size="13" font-weight="bold">6 × 7 =</text>
        <rect x="90" y="10" width="44" height="20" rx="3" fill="#ffffff" stroke="#94a3b8" stroke-width="1"/>
        <text x="112" y="24" fill="#059669" font-family="'Courier New', monospace" font-size="12" font-weight="bold" text-anchor="middle">42</text>
      </g>
      <!-- Item D -->
      <g transform="translate(156, 62)">
        <rect width="142" height="38" rx="5" fill="#f1f5f9" stroke="#cbd5e1" stroke-width="1"/>
        <text x="10" y="24" fill="#0f172a" font-family="'Courier New', monospace" font-size="13" font-weight="bold">72 ÷ 8 =</text>
        <rect x="90" y="10" width="44" height="20" rx="3" fill="#ffffff" stroke="#94a3b8" stroke-width="1"/>
        <text x="112" y="24" fill="#059669" font-family="'Courier New', monospace" font-size="12" font-weight="bold" text-anchor="middle">9</text>
      </g>
    </g>

    <!-- Exercise 2: Word Problem with Math Grid Area -->
    <g transform="translate(18, 226)">
      <text x="0" y="10" fill="#1e293b" font-family="system-ui, sans-serif" font-size="10.5" font-weight="700">2. Sachaufgabe mit Lösungsweg:</text>
      <text x="0" y="25" fill="#475569" font-family="system-ui, sans-serif" font-size="9.5">Im Schulgarten pflanzt die 3b vier Reihen mit je 6 Tulpen.</text>
      
      <!-- Graph Paper Math Grid -->
      <g transform="translate(0, 32)">
        <rect width="299" height="64" rx="4" fill="#f8fafc" stroke="#94a3b8" stroke-width="1"/>
        <!-- Grid lines inside -->
        <path d="M0 16 H299 M0 32 H299 M0 48 H299" stroke="#e2e8f0" stroke-width="1"/>
        <path d="M42 0 V64 M84 0 V64 M126 0 V64 M168 0 V64 M210 0 V64 M252 0 V64" stroke="#e2e8f0" stroke-width="1"/>
        <!-- Handwritten student work simulation -->
        <text x="14" y="26" fill="#1d4ed8" font-family="'Courier New', monospace" font-size="12" font-weight="bold">4 × 6 = 24</text>
        <text x="14" y="50" fill="#1d4ed8" font-family="'Courier New', monospace" font-size="11">A: Es blühen 24 Tulpen.</text>
      </g>
    </g>

    <!-- Exercise 3: Competency Self-Evaluation Bar -->
    <g transform="translate(18, 342)">
      <text x="0" y="10" fill="#1e293b" font-family="system-ui, sans-serif" font-size="10.5" font-weight="700">3. Wie sicher fühlst du dich heute?</text>
      <g transform="translate(0, 16)">
        <rect width="94" height="24" rx="4" fill="#f0fdf4" stroke="#86efac" stroke-width="1"/>
        <text x="12" y="16" fill="#166534" font-family="system-ui, sans-serif" font-size="10" font-weight="600">☺ Sehr sicher</text>
        
        <rect x="103" y="0" width="94" height="24" rx="4" fill="#ffffff" stroke="#cbd5e1" stroke-width="1"/>
        <text x="115" y="16" fill="#475569" font-family="system-ui, sans-serif" font-size="10">😐 Geht so</text>
        
        <rect x="206" y="0" width="93" height="24" rx="4" fill="#ffffff" stroke="#cbd5e1" stroke-width="1"/>
        <text x="218" y="16" fill="#475569" font-family="system-ui, sans-serif" font-size="10">☹ Hilfe</text>
      </g>
    </g>

    <!-- Golden Embossed Bespoke Quality Seal (Rich Vibrant Gold) -->
    <g transform="translate(248, 390)">
      <!-- Golden Ribbons -->
      <path d="M18 36 L12 60 L24 52 L36 60 L30 36 Z" fill="#d97706"/>
      <path d="M28 36 L24 64 L34 54 L44 64 L40 36 Z" fill="#b45309"/>
      <!-- Gold Medallion Layers -->
      <circle cx="28" cy="24" r="26" fill="#f59e0b" stroke="#ffffff" stroke-width="2"/>
      <circle cx="28" cy="24" r="22" fill="#fbbf24" stroke="#78350f" stroke-width="1.2" stroke-dasharray="3,2"/>
      <circle cx="28" cy="24" r="18" fill="#fef08a"/>
      <text x="28" y="19" fill="#78350f" font-family="system-ui, sans-serif" font-size="7.5" font-weight="900" text-anchor="middle" letter-spacing="1">BESPOKE</text>
      <text x="28" y="27" fill="#78350f" font-family="system-ui, sans-serif" font-size="6.5" font-weight="800" text-anchor="middle">TAILORED</text>
      <text x="28" y="36" fill="#b45309" font-family="system-ui, sans-serif" font-size="9" text-anchor="middle">★</text>
    </g>

    <!-- Footer Meta -->
    <g transform="translate(18, 452)">
      <text x="0" y="14" fill="#64748b" font-family="system-ui, sans-serif" font-size="8.5" font-weight="500">
        worksheet-generator · Curricular Mode: Grundschule Math · Deterministic Output
      </text>
    </g>
  </g>

  <!-- ================= SHEET 3 (RIGHT / FOREGROUND): TIER E (ERWEITERT / ADVANCED) ================= -->
  <g transform="translate(2075, 125) rotate(4)">
    <!-- Multi-layer Drop Shadow -->
    <rect x="0" y="14" width="265" height="435" rx="10" fill="#02080a" opacity="0.65"/>
    <rect x="0" y="6" width="265" height="435" rx="10" fill="#02080a" opacity="0.35"/>
    
    <!-- Sheet Base (Cool Mint-Tinted Paper) -->
    <rect width="265" height="435" rx="10" fill="#f8fafc" stroke="#cbd5e1" stroke-width="1.5"/>
    
    <!-- Top Header Ribbon -->
    <rect x="14" y="16" width="237" height="34" rx="6" fill="#e0f2fe" stroke="#0284c7" stroke-width="1"/>
    <text x="24" y="32" fill="#0369a1" font-family="system-ui, sans-serif" font-size="9" font-weight="800" letter-spacing="1">TIER E · ERWEITERT (GRADE 4+)</text>
    <text x="24" y="44" fill="#0c4a6e" font-family="system-ui, sans-serif" font-size="11" font-weight="700">Brüche &amp; Geometrische Muster</text>
    
    <!-- Exercise 1: Fraction Circle Diagram -->
    <g transform="translate(14, 62)">
      <text x="0" y="10" fill="#334155" font-family="system-ui, sans-serif" font-size="10.5" font-weight="700">1. Bestimme den Anteil:</text>
      <!-- Circular Fraction Graphic -->
      <g transform="translate(42, 48)">
        <circle cx="0" cy="0" r="28" fill="#ffffff" stroke="#0284c7" stroke-width="2"/>
        <!-- Sectors: 3 of 8 filled -->
        <path d="M0 0 L28 0 A28 28 0 0 1 0 28 Z" fill="#38bdf8"/>
        <path d="M0 0 L0 28 A28 28 0 0 1 -28 0 Z" fill="#38bdf8"/>
        <path d="M0 0 L-28 0 A28 28 0 0 1 -20 -20 Z" fill="#38bdf8"/>
        <line x1="-28" y1="0" x2="28" y2="0" stroke="#0284c7" stroke-width="1.5"/>
        <line x1="0" y1="-28" x2="0" y2="28" stroke="#0284c7" stroke-width="1.5"/>
        <line x1="-20" y1="-20" x2="20" y2="20" stroke="#0284c7" stroke-width="1.5"/>
        <line x1="-20" y1="20" x2="20" y2="-20" stroke="#0284c7" stroke-width="1.5"/>
      </g>
      <text x="105" y="44" fill="#0f172a" font-family="'Courier New', monospace" font-size="15" font-weight="bold">Anteil = 3/8</text>
      <text x="105" y="62" fill="#059669" font-family="system-ui, sans-serif" font-size="10.5" font-weight="700">✓ Differenziert</text>
    </g>

    <!-- Exercise 2: Multi-step Reasoning Table -->
    <g transform="translate(14, 155)">
      <text x="0" y="10" fill="#334155" font-family="system-ui, sans-serif" font-size="10.5" font-weight="700">2. Logische Zahlenfolgen:</text>
      <rect x="0" y="18" width="237" height="60" rx="6" fill="#ffffff" stroke="#cbd5e1" stroke-width="1"/>
      <text x="12" y="38" fill="#1e293b" font-family="'Courier New', monospace" font-size="11.5" font-weight="bold">3, 7, 15, 31, [ 63 ]</text>
      <text x="12" y="62" fill="#1e293b" font-family="'Courier New', monospace" font-size="11.5" font-weight="bold">100, 81, 64, 49, [ 36 ]</text>
    </g>

    <!-- Exercise 3: Challenge Box -->
    <g transform="translate(14, 250)">
      <rect width="237" height="65" rx="6" fill="#f0fdf4" stroke="#10b981" stroke-width="1.2"/>
      <text x="12" y="20" fill="#065f46" font-family="system-ui, sans-serif" font-size="10.5" font-weight="800">★ Knobelaufgabe des Tages:</text>
      <text x="12" y="38" fill="#047857" font-family="system-ui, sans-serif" font-size="9.5">Finde zwei Primzahlen, deren Summe 48 ist.</text>
      <text x="12" y="54" fill="#1e293b" font-family="'Courier New', monospace" font-size="11" font-weight="bold">Lösung: [ 17 ] + [ 31 ]</text>
    </g>

    <!-- Footer Stamp -->
    <g transform="translate(14, 390)">
      <text x="0" y="14" fill="#94a3b8" font-family="system-ui, sans-serif" font-size="8.5">worksheet-generator · Curricular Stufe E · DOCX / HTML Export</text>
    </g>
  </g>
</g>

<!-- Export Formats Output Badges -->
<g id="output-format-strip" transform="translate(1705, 614)">
  <!-- Pill JSON -->
  <g transform="translate(0, 0)">
    <rect width="84" height="28" rx="8" fill="#0b242c" stroke="#38bdf8" stroke-width="1.2"/>
    <text x="42" y="18" fill="#38bdf8" font-family="'Courier New', monospace" font-size="11" font-weight="bold" text-anchor="middle">.JSON</text>
  </g>
  <!-- Pill MD -->
  <g transform="translate(94, 0)">
    <rect width="78" height="28" rx="8" fill="#0b242c" stroke="#2dd4bf" stroke-width="1.2"/>
    <text x="39" y="18" fill="#2dd4bf" font-family="'Courier New', monospace" font-size="11" font-weight="bold" text-anchor="middle">.MD</text>
  </g>
  <!-- Pill HTML -->
  <g transform="translate(182, 0)">
    <rect width="86" height="28" rx="8" fill="#0b242c" stroke="#fbbf24" stroke-width="1.2"/>
    <text x="43" y="18" fill="#fbbf24" font-family="'Courier New', monospace" font-size="11" font-weight="bold" text-anchor="middle">.HTML</text>
  </g>
  <!-- Pill DOCX -->
  <g transform="translate(278, 0)">
    <rect width="88" height="28" rx="8" fill="#0b242c" stroke="#a78bfa" stroke-width="1.2"/>
    <text x="44" y="18" fill="#a78bfa" font-family="'Courier New', monospace" font-size="11" font-weight="bold" text-anchor="middle">.DOCX</text>
  </g>
</g>
</svg>
